<?xml version="1.0" encoding="UTF-8"?>
<svg width="20px" height="20px" viewBox="0 0 20 20" version="1.1" xmlns="http://www.w3.org/2000/svg" xmlns:xlink="http://www.w3.org/1999/xlink">
    <title>android</title>
    <g id="页面-1" stroke="none" stroke-width="1" fill="none" fill-rule="evenodd">
        <g id="2-1官网备份-6" transform="translate(-916, -540)" fill="#FFFFFF" fill-rule="nonzero">
            <g id="编组-23" transform="translate(426, 530)">
                <g id="编组-18" transform="translate(470, 0)">
                    <g id="android" transform="translate(20, 10)">
                        <polygon id="路径" opacity="0" points="0 0 20 0 20 20 0 20"></polygon>
                        <path d="M19,15.2081131 L1,15.2081131 C1.17885619,13.5795175 1.74739298,12.0179708 2.65749999,10.6556131 C3.35741611,9.57432759 4.29661957,8.66848382 5.40249999,8.00811312 L5.71000001,7.83561311 L4.195,5.27811312 C4.08551526,5.09788643 4.14254747,4.8630479 4.32249999,4.75311311 C4.40881855,4.70152173 4.51224132,4.68676078 4.60954612,4.71214464 C4.70685091,4.7375285 4.78988349,4.80092997 4.83999999,4.88811311 L6.4,7.51311312 C7.55395682,7.05200048 8.78742135,6.82263724 10.03,6.83811312 C11.2506377,6.82321861 12.4619161,7.05272398 13.5925,7.51311312 L15.145,4.88811311 C15.1963674,4.80008998 15.2813488,4.7367653 15.3803851,4.71271361 C15.4794215,4.68866193 15.5839815,4.70595514 15.67,4.76061312 C15.8472916,4.87303176 15.9008465,5.10733433 15.79,5.28561312 L14.275,7.85061312 L14.65,8.06061311 C15.7521861,8.74676519 16.68331,9.67532401 17.3725,10.7756131 C18.2335244,12.1158661 18.7891562,13.6291305 19,15.2081131 Z M13.375,11.8481131 C13.375,12.2623267 13.7107864,12.5981131 14.125,12.5981131 C14.5392136,12.5981131 14.875,12.2623267 14.875,11.8481131 C14.875,11.4338996 14.5392136,11.0981131 14.125,11.0981131 C13.7107864,11.0981131 13.375,11.4338996 13.375,11.8481131 Z M5.12500001,11.8481131 C5.12500001,12.2623267 5.46078644,12.5981131 5.87499999,12.5981131 C6.28921356,12.5981131 6.62500001,12.2623267 6.62500001,11.8481131 C6.62500001,11.4338996 6.28921356,11.0981131 5.87499999,11.0981131 C5.46078644,11.0981131 5.12500001,11.4338996 5.12500001,11.8481131 L5.12500001,11.8481131 Z" id="形状"></path>
                    </g>
                </g>
            </g>
        </g>
    </g>
</svg>