<?xml version="1.0" encoding="UTF-8"?>
<svg width="20px" height="20px" viewBox="0 0 20 20" version="1.1" xmlns="http://www.w3.org/2000/svg" xmlns:xlink="http://www.w3.org/1999/xlink">
    <title>macOS</title>
    <g id="页面-1" stroke="none" stroke-width="1" fill="none" fill-rule="evenodd">
        <g id="2-1官网备份-6" transform="translate(-446, -540)" fill="#FFFFFF" fill-rule="nonzero">
            <g id="编组-23" transform="translate(426, 530)">
                <g id="macOS" transform="translate(20, 10)">
                    <polygon id="路径" opacity="0" points="0 0 20 0 20 20 0 20"></polygon>
                    <path d="M18.5048542,1.50000031 C18.7464442,1.50000031 18.9781789,1.5957761 19.1490795,1.76653536 C19.3199801,1.93729462 19.416147,2.16895001 19.416147,2.41053998 L19.416147,14.5542039 C19.4159473,14.7957939 19.3197844,15.0274097 19.1488132,15.1980983 C18.977842,15.3687869 18.7460675,15.4645665 18.5044775,15.4643666 L12.7323286,15.4643666 L12.7323286,16.98256 L13.9476368,18.196738 L13.9476368,18.5000003 L6.04851021,18.5000003 L6.04851021,18.196738 L7.2638184,16.9821833 L7.2638184,15.4643666 L1.4912928,15.4643666 C0.988354753,15.4645747 0.58041596,15.0571419 0.58,14.5542039 L0.58,2.41053998 C0.58,2.1688847 0.676218624,1.93717218 0.847200678,1.76640208 C1.01818273,1.59563199 1.2500143,1.49980072 1.49166953,1.50000031 Z M18.2008388,2.7145554 L1.79530821,2.7145554 L1.79530821,13.0360105 L18.2008388,13.0360105 L18.2008388,2.7145554 Z M11.4058871,5.82101275 C11.7449378,5.82101275 12.0500833,5.91293315 12.3213239,6.0960205 C12.4667389,6.19246158 12.6144143,6.33410939 12.7647268,6.52247086 C12.5424602,6.71459955 12.3797159,6.88374815 12.2780007,7.02803305 C12.0929928,7.28496829 11.9937275,7.59370597 11.9943284,7.91031817 C11.9943284,8.2621774 12.0934065,8.57975484 12.2923162,8.86418065 C12.4912259,9.14295562 12.7191433,9.32378263 12.9760683,9.40666168 C12.8466234,9.78477821 12.6680337,10.1442376 12.444889,10.4758014 C12.0719333,11.0352349 11.7034982,11.3140099 11.3399606,11.3140099 C11.2035869,11.3140099 11.0027936,11.2688032 10.7364505,11.1772595 C10.4893202,11.0853391 10.273458,11.0397556 10.0896172,11.0397556 C9.90502293,11.0397556 9.70159254,11.0875994 9.47819584,11.1840405 C9.24538107,11.2759609 9.05400581,11.3215444 8.90369335,11.3215444 C8.46782492,11.3215444 8.03911421,10.9527326 7.6168078,10.2158626 C7.1948781,9.48803384 6.98428999,8.77226024 6.98428999,8.0685418 C6.98428999,7.418318 7.14439723,6.88638522 7.46423501,6.47123655 C7.79386757,6.05684132 8.20110508,5.85002043 8.6859475,5.85002041 C8.7925601,5.85002041 8.91122783,5.86395916 9.04195068,5.88957632 C9.17342699,5.91670037 9.30867052,5.96567436 9.44881145,6.03800516 C9.59950064,6.11975405 9.72344248,6.1766392 9.82026026,6.20790722 C9.91670134,6.23917521 9.99242266,6.25499758 10.0455406,6.25499758 C10.10883,6.25499758 10.2056478,6.24068211 10.3363707,6.21129772 C10.4749266,6.17979063 10.6074827,6.12610669 10.728916,6.05232063 C10.8461812,5.98642964 10.9677626,5.92853371 11.0928304,5.87902809 C11.1928416,5.84100996 11.2988941,5.82135644 11.4058871,5.82101275 Z M11.3324261,4.13706121 L11.3542761,4.2387764 L11.3542761,4.31788822 C11.3542761,4.49118078 11.3132133,4.68594652 11.230711,4.90331567 C11.1613036,5.06817654 11.067564,5.22130713 10.9528988,5.35771612 L10.8313846,5.48874312 C10.6611059,5.64734348 10.505896,5.75169572 10.3653784,5.79916281 C10.3046783,5.81666587 10.2428863,5.83013176 10.1804074,5.83947218 C10.1050628,5.85152731 10.0187933,5.86245229 9.92159875,5.87187035 C9.92687286,5.4473036 10.0380061,5.08150561 10.2568822,4.77334625 C10.474628,4.46481017 10.8332683,4.25271516 11.3324261,4.13706121 Z" id="形状结合"></path>
                </g>
            </g>
        </g>
    </g>
</svg>