<?xml version="1.0" encoding="UTF-8"?>
<svg width="60px" height="60px" viewBox="0 0 60 60" version="1.1" xmlns="http://www.w3.org/2000/svg" xmlns:xlink="http://www.w3.org/1999/xlink">
    <title>安全监控（白）</title>
    <defs>
        <linearGradient x1="3.33066907e-14%" y1="100%" x2="100%" y2="-3.061617e-15%" id="linearGradient-1">
            <stop stop-color="#B4D2FF" offset="0%"></stop>
            <stop stop-color="#DCB4FF" offset="100%"></stop>
        </linearGradient>
    </defs>
    <g id="页面-1" stroke="none" stroke-width="1" fill="none" fill-rule="evenodd">
        <g id="2-1官网备份-6" transform="translate(-2650, -3120)" fill-rule="nonzero">
            <g id="安全监控（白）" transform="translate(2650, 3120)">
                <rect id="矩形" fill="#000000" opacity="0" x="0" y="0" width="60" height="60"></rect>
                <path d="M7.24781536,3.75 L52.7489065,3.75 C54.6815626,3.75 56.2500015,5.31843743 56.2500015,7.24781228 L56.2500015,40.4967166 C56.2500015,42.432654 54.6815626,43.9945304 52.7521877,43.9945304 L7.24781536,43.9945304 C6.3198709,43.9954006 5.42968209,43.6271621 4.77352598,42.971006 C4.11736987,42.3148499 3.74913136,41.424661 3.75000154,40.4967166 L3.75000154,7.24781228 C3.75000154,5.31843743 5.31844051,3.75 7.24781536,3.75 Z M21.6065645,26.4660924 L24.8582831,19.9265616 L32.1196889,33.2484358 C33.5207826,35.8078107 36.7265636,35.9423419 38.4196886,33.5896858 L42.8821883,27.3749986 L47.4989068,27.3749986 C48.4368163,27.3751297 49.3035365,26.8748362 49.7725291,26.0626046 C50.2415217,25.250373 50.2415217,24.2496246 49.7725291,23.437393 C49.3035365,22.6251613 48.4368163,22.1248679 47.4989068,22.1249989 L41.5368759,22.1249989 C40.6923622,22.1244917 39.8994485,22.5313334 39.4073447,23.2176551 L35.5551575,28.5726548 L27.8770329,14.5026556 C26.4168767,11.8185933 23.0076582,11.8612496 21.6360958,14.6174993 L17.6296898,22.6664051 L13.42969,22.6664051 C11.9800859,22.6666077 10.805057,23.8418009 10.805057,25.291405 C10.805057,26.7410091 11.9800859,27.9162022 13.42969,27.9164048 L19.2539084,27.9164048 C20.2499587,27.9191342 21.1615228,27.3571937 21.6065645,26.4660924 L21.6065645,26.4660924 Z M14.2500025,49.2510911 L45.7500006,49.2510911 C47.0357904,49.1953845 48.2484823,49.8496123 48.9079988,50.9547803 C49.5675153,52.0599484 49.5675153,53.4378583 48.9079988,54.5430264 C48.2484823,55.6481945 47.0357904,56.3024223 45.7500006,56.2467157 L14.2500025,56.2467157 C12.3770962,56.1655724 10.900451,54.6235665 10.900451,52.7489034 C10.900451,50.8742402 12.3770962,49.3322344 14.2500025,49.2510911 Z" id="形状" fill="url(#linearGradient-1)"></path>
            </g>
        </g>
    </g>
</svg>