<?xml version="1.0" standalone="no"?><!DOCTYPE svg PUBLIC "-//W3C//DTD SVG 1.1//EN" "http://www.w3.org/Graphics/SVG/1.1/DTD/svg11.dtd"><svg t="1770126741274" class="icon" viewBox="0 0 1024 1024" version="1.1" xmlns="http://www.w3.org/2000/svg" p-id="2244" width="128" height="128" xmlns:xlink="http://www.w3.org/1999/xlink"><path d="M848.896 795.136H171.52c-37.376 0-67.584 31.744-67.584 70.144 0 38.912 30.208 70.144 67.584 70.144h677.376c37.376 0 67.584-31.232 67.584-70.144 0-38.4-30.208-70.144-67.584-70.144m-33.792 105.472c-18.944-0.512-34.304-15.872-33.792-34.816v-0.512c0-19.456 15.36-34.816 33.792-34.816 18.944 0 33.792 15.872 33.792 34.816 0.512 19.456-14.848 34.816-33.792 35.328m43.008-193.536c16.384 0 31.744 3.584 45.568 8.704L799.744 93.696h-578.56L116.736 715.776c14.336-5.12 29.696-8.704 45.568-8.704h695.808M406.016 382.464c0-59.904 47.104-108.032 104.448-108.032s104.448 48.64 104.448 108.032c38.4 0 69.632 32.256 69.632 72.192s-31.232 72.192-69.632 72.192H406.016c-38.4 0-69.632-32.256-69.632-72.192s31.232-72.192 69.632-72.192M874.496 1024H145.92C65.536 1024 0 956.416 0 872.96c0-16.384 3.072-31.744 7.68-46.592L131.584 88.576c5.12-46.592 43.008-82.432 89.6-84.992h578.048c45.568 1.536 82.432 36.864 89.088 82.944l123.904 739.84c4.608 14.848 7.68 30.208 7.68 47.104 0.512 82.944-65.024 150.528-145.408 150.528" fill="#ffffff" p-id="2245"></path></svg>