<?xml version="1.0" encoding="UTF-8"?>
<svg width="20px" height="20px" viewBox="0 0 20 20" version="1.1" xmlns="http://www.w3.org/2000/svg" xmlns:xlink="http://www.w3.org/1999/xlink">
    <title>apple</title>
    <g id="页面-1" stroke="none" stroke-width="1" fill="none" fill-rule="evenodd">
        <g id="2-1官网备份-6" transform="translate(-816, -540)" fill="#FFFFFF" fill-rule="nonzero">
            <g id="编组-23" transform="translate(426, 530)">
                <g id="编组-19" transform="translate(370, 0)">
                    <g id="apple" transform="translate(20, 10)">
                        <polygon id="路径" opacity="0" points="0 0 20 0 20 20 0 20"></polygon>
                        <path d="M6.21767904,18.8835892 C5.85382329,18.6410251 5.53071002,18.3423271 5.26036322,17.9986107 C4.96562691,17.6423107 4.69243791,17.2675416 4.44156577,16.8796901 C3.85242705,16.0179347 3.39105146,15.0754844 3.07177303,14.0816191 C2.68699979,12.9257603 2.5,11.8191525 2.5,10.7364006 C2.5,9.52821259 2.7616458,8.47393392 3.27108558,7.58895547 C3.65095876,6.8955589 4.20878875,6.31594697 4.88713318,5.90980504 C5.54442654,5.50210714 6.2993317,5.27882533 7.0726452,5.263386 C7.34198646,5.263386 7.63441412,5.30186333 7.94223271,5.37881797 C8.1654012,5.44038168 8.43474246,5.54042272 8.76564745,5.66355017 C9.18889802,5.82515493 9.41976195,5.92519597 9.49671661,5.94828237 C9.74297148,6.04062795 9.95074903,6.07910528 10.1123538,6.07910528 C10.2354812,6.07910528 10.4124769,6.04062795 10.6087113,5.97906424 C10.7202955,5.94058691 10.9319208,5.87132773 11.2320439,5.74050483 C11.5290888,5.63276832 11.7645701,5.54042274 11.9515699,5.47116355 C12.2363021,5.38651343 12.5117997,5.30955879 12.7595937,5.27108146 C13.0597168,5.22490867 13.3575313,5.20951775 13.643033,5.23260415 C14.189411,5.27108148 14.6896162,5.38651345 15.1359532,5.55581367 C15.9208906,5.87132772 16.5542274,6.36383746 17.0267289,7.06412478 C16.8266468,7.1872522 16.6419557,7.33038786 16.4688077,7.48737533 C16.0940386,7.81828032 15.7762159,8.21074903 15.5222655,8.64554278 C15.1922395,9.23826462 15.0214906,9.90641255 15.0266776,10.5847999 C15.0382208,11.4182188 15.2498461,12.150827 15.6730966,12.7857028 C15.9813391,13.2565191 16.3831667,13.6588706 16.853581,13.9677263 C17.0921404,14.129331 17.301457,14.2409153 17.5,14.3140222 C17.4076544,14.6026021 17.3060743,14.8834866 17.1883337,15.1605233 C16.921301,15.7815473 16.6034783,16.3764067 16.2264006,16.9381757 C15.8939565,17.42299 15.6323107,17.7846768 15.4337677,18.0232362 C15.12441,18.3926185 14.825826,18.6696552 14.5257028,18.8674287 C14.1947979,19.0867494 13.8061769,19.2029509 13.4083214,19.2029509 C13.1389801,19.2144941 12.8696388,19.1798646 12.6126103,19.1052185 C12.3894418,19.0321116 12.1693515,18.9497702 11.9538785,18.856655 C11.7280963,18.7533568 11.4953853,18.6659295 11.257439,18.5950092 C10.9650376,18.5185457 10.6639175,18.4805176 10.3616868,18.4818859 C10.0538683,18.4818859 9.75374514,18.5203632 9.46901293,18.5934701 C9.23045352,18.6611902 8.99958957,18.7443012 8.77103427,18.8435728 C8.44782474,18.9782434 8.23619947,19.0667412 8.11307204,19.1052185 C7.86499388,19.1786148 7.60942756,19.2237907 7.35122101,19.2398892 C6.95105685,19.2398892 6.57859635,19.1244572 6.20767494,18.8935933 L6.21767904,18.8835892 Z M11.4921506,4.67776113 C10.968859,4.93940692 10.471732,5.05022162 9.97383541,5.01328341 C9.89688076,4.51615639 9.97383541,4.00517752 10.181613,3.44571721 C10.3663041,2.96859839 10.612559,2.53765237 10.9511594,2.15287913 C11.3051508,1.75271496 11.7284014,1.42180997 12.2055202,1.18325057 C12.7134209,0.921604774 13.1982352,0.783086404 13.6599631,0.76 C13.7215268,1.28329161 13.6599631,1.79888775 13.4675764,2.35296121 C13.290471,2.84514595 13.0301741,3.30326847 12.69803,3.70736302 C12.3632773,4.10752719 11.9477221,4.43843218 11.4775293,4.67699158 L11.4921506,4.67776113 Z" id="形状"></path>
                    </g>
                </g>
            </g>
        </g>
    </g>
</svg>