<?xml version="1.0" encoding="UTF-8"?>
<svg width="20px" height="20px" viewBox="0 0 45 34" version="1.1" xmlns="http://www.w3.org/2000/svg" xmlns:xlink="http://www.w3.org/1999/xlink">
    <title>HarmonyOS</title>
    <g id="pages" stroke="none" stroke-width="1" fill="none" fill-rule="evenodd">
        <g id="harmonyos" transform="translate(2.296530, 1.866667)" fill="#FFFFFF">
            <path d="M6.15378371,5.33300601 C6.15378371,5.33300601 2.67205913,8.5331852 2.89470917,11.9911341 C2.99703723,14.4808652 4.92821982,16.0319311 4.92821982,16.0319311 C8.01694533,18.976515 15.3484789,22.7519318 17.111883,23.6267476 C17.1840564,23.662527 17.2543514,23.6409803 17.2925143,23.6088579 C17.3483745,23.561811 17.3392787,23.4715719 17.3146607,23.4179028 C12.6094484,13.150307 6.15378371,5.33300601 6.15378371,5.33300601 M15.2072958,0.380032398 C11.9325013,1.17637077 11.1247523,4.18935065 11.1247523,4.18935065 C10.5554721,5.77125404 11.1446247,8.10620472 11.1446247,8.10620472 C12.2315761,12.9298981 17.5837785,20.8616537 18.757338,22.5573197 C18.8012353,22.6197853 18.8652027,22.643803 18.9319383,22.626111 C18.9745503,22.6148434 19.0247751,22.5814362 19.0338709,22.4882319 C20.8130939,4.71141336 17.1526165,0 17.1526165,0 C16.1504936,0.141338447 15.2072958,0.380032398 15.2072958,0.380032398 M16.0125732,26.0603387 C12.9264182,26.1678745 3.644324,26.4910751 3.644324,26.4910751 C6.41805705,31.2552679 9.61158231,30.1670607 9.61158231,30.1670607 C11.3390975,29.6802832 14.9237433,27.1746392 16.1056077,26.3271027 C16.1802528,26.2735324 16.1630498,26.1774618 16.1433751,26.1386185 C16.118065,26.0890018 16.055284,26.0588561 16.0125732,26.0603387 M16.2859423,24.8653864 C10.8575129,21.2086741 0.356083484,15.571148 0.356083484,15.571148 C-0.582072029,18.4022658 0.63024359,20.8259731 0.63024359,20.8259731 C1.9897732,23.7971445 4.60660323,24.6290646 4.60660323,24.6290646 C5.7823378,25.0802604 6.73384045,25.1180165 6.73384045,25.1180165 C6.9191185,25.1524122 14.2775441,25.1436156 16.221184,25.1407493 C16.2863378,25.1403539 16.3350796,25.0943942 16.3494154,25.0428996 C16.3763074,24.9458406 16.3256872,24.8922703 16.2859423,24.8653864 M39.8388956,15.571148 C39.8388956,15.571148 29.337565,21.2086741 23.9090367,24.8653864 C23.8692919,24.8922703 23.8186717,24.9458406 23.8456625,25.0428996 C23.8598995,25.0943942 23.9087401,25.1403539 23.9739928,25.1407493 C25.917435,25.1436156 33.2759595,25.1524122 33.4612375,25.1180165 C33.4612375,25.1180165 34.4127402,25.0802604 35.5884747,24.6290646 C35.5884747,24.6290646 38.2053048,23.7971445 39.5647355,20.8259731 C39.5647355,20.8259731 40.77715,18.4022658 39.8388956,15.571148 M24.0517028,26.1386185 C24.0320281,26.1774618 24.0148252,26.2735324 24.0894703,26.3271027 C25.2714335,27.1746392 28.8559805,29.6802832 30.5834956,30.1670607 C30.5834956,30.1670607 33.776922,31.2552679 36.550754,26.4910751 C36.550754,26.4910751 27.2686597,26.1678745 24.1825048,26.0603387 C24.1396951,26.0588561 24.0770129,26.0890018 24.0517028,26.1386185 M29.0703256,4.18935065 C29.0703256,4.18935065 28.2625766,1.17637077 24.9877821,0.380032398 C24.9877821,0.380032398 24.0445843,0.141338447 23.0424614,0 C23.0424614,0 19.3819841,4.71141336 21.1611082,22.4882319 C21.170204,22.5814362 21.2205276,22.6148434 21.2631396,22.626111 C21.3298753,22.643803 21.3937438,22.6197853 21.43774,22.5573197 C22.6112006,20.8616537 27.963403,12.9298981 29.0503544,8.10620472 C29.0503544,8.10620472 29.6395069,5.77125404 29.0703256,4.18935065 M37.3003688,11.9911341 C37.5230188,8.5331852 34.0412942,5.33300601 34.0412942,5.33300601 C34.0412942,5.33300601 27.5855307,13.150307 22.8803184,23.4179028 C22.8557004,23.4715719 22.8467034,23.561811 22.9025637,23.6088579 C22.9407266,23.6409803 23.0109226,23.662527 23.0830961,23.6267476 C24.846599,22.7519318 32.1781326,18.976515 35.2668581,16.0319311 C35.2668581,16.0319311 37.1980407,14.4808652 37.3003688,11.9911341" id="petal"></path>
        </g>
    </g>
</svg>
