<?xml version="1.0" encoding="UTF-8"?>
<svg width="20px" height="20px" viewBox="0 0 20 20" version="1.1" xmlns="http://www.w3.org/2000/svg" xmlns:xlink="http://www.w3.org/1999/xlink">
    <title>linux</title>
    <g id="页面-1" stroke="none" stroke-width="1" fill="none" fill-rule="evenodd">
        <g id="2-1官网备份-6" transform="translate(-705, -540)" fill="#FFFFFF" fill-rule="nonzero">
            <g id="编组-23" transform="translate(426, 530)">
                <g id="编组-20" transform="translate(259, 0)">
                    <g id="linux" transform="translate(20, 10)">
                        <polygon id="路径" opacity="0" points="0 0 20 0 20 20 0 20"></polygon>
                        <path d="M10.4075365,0.29 C10.2821096,0.29 10.1526367,0.296473653 10.019927,0.306993314 C6.59941525,0.576458755 7.50653465,4.1968443 7.45474549,5.40336976 C7.39243667,6.28783142 7.21198382,6.98455738 6.60427048,7.84797967 C5.88812359,8.69845468 4.88309031,10.0732949 4.40646825,11.5063979 C4.18150912,12.1796569 4.07469399,12.8691 4.17422627,13.5205104 C4.13702408,13.5502918 4.1064337,13.5874963 4.08440446,13.6297532 C3.87401102,13.8466203 3.72107118,14.1160857 3.54871039,14.3086766 C3.38767849,14.4697085 3.1562457,14.5247345 2.90377359,14.6323588 C2.65049227,14.7424108 2.37131635,14.8500351 2.20462001,15.1834278 C2.13179151,15.3355585 2.09456805,15.5014456 2.09780488,15.6697603 C2.09780488,15.8307922 2.11965342,15.9942517 2.14231119,16.1034945 C2.1892451,16.4263675 2.23617903,16.6934053 2.17387019,16.8884239 C1.97318723,17.4386836 1.94810184,17.8157734 2.08890362,18.0900941 C2.22970538,18.3603687 2.52182859,18.4696115 2.84874761,18.5764266 C3.50501328,18.7382677 4.39433017,18.6856693 5.09429295,19.0611407 C5.84361728,19.4390397 6.60427048,19.6041176 7.21117464,19.4414673 C7.63681675,19.3484087 7.99610402,19.0668052 8.18869492,18.6767681 C8.66369858,18.6743405 9.18401772,18.4590918 10.0174994,18.4064934 C10.5831341,18.3595595 11.2911889,18.6225513 12.1036313,18.5675253 C12.1238614,18.6767681 12.1546112,18.7285572 12.1958807,18.8378 L12.1983083,18.8402276 C12.5147077,19.4697895 13.0989541,19.7562483 13.7228516,19.7068867 C14.346749,19.6583344 15.0111068,19.2731526 15.5492284,18.6500643 C16.0598371,18.0310221 16.9111213,17.7728855 17.4735192,17.4338284 C17.7551227,17.2727965 17.9825095,17.054311 17.9986936,16.7435761 C18.0173053,16.4198939 17.8376617,16.0865012 17.4209208,15.6293 L17.4209208,15.5508071 L17.4184932,15.5483795 C17.2809283,15.3865384 17.2161918,15.1154545 17.1449817,14.7990552 C17.0761993,14.4745638 16.9977063,14.1630196 16.7468526,13.9526262 L16.744425,13.9526262 C16.6966819,13.9089291 16.6448927,13.8984094 16.5922944,13.8433834 C16.5470437,13.8117886 16.4936898,13.7938167 16.4385453,13.7915943 C16.7873129,12.7574296 16.6521756,11.7281202 16.2985528,10.8023891 C15.8672462,9.66140927 15.1130667,8.66770488 14.5385307,7.9839262 C13.8944031,7.17067465 13.2632228,6.40031098 13.2753609,5.25771275 C13.2972094,3.51630246 13.4671426,0.29485523 10.4075365,0.29 L10.4075365,0.29 Z M10.8356062,3.04534478 L10.8461259,3.04534478 C11.0184867,3.04534478 11.1665713,3.09551557 11.3187019,3.20556753 C11.4732602,3.31481027 11.5857397,3.47422377 11.6739431,3.63687408 C11.7589097,3.84645832 11.8017976,4.00829942 11.8082712,4.22273887 C11.8082712,4.20655476 11.8131265,4.19037065 11.8131265,4.17499576 L11.8131265,4.25915313 C11.811345,4.25364536 11.8102577,4.24793683 11.8098897,4.24215981 L11.8066528,4.22273887 C11.805023,4.41939684 11.7637393,4.61370525 11.685272,4.79403798 C11.6474845,4.89549653 11.5887569,4.98786147 11.5129112,5.06512184 C11.4899814,5.05217447 11.4661887,5.04081882 11.4417012,5.03113522 C11.3567346,4.99472096 11.2806692,4.97934605 11.2110776,4.92351088 C11.153673,4.90058329 11.0943757,4.88271288 11.0338616,4.87010331 C11.0735126,4.82236018 11.1511963,4.76247898 11.181137,4.70988061 C11.2240249,4.6063023 11.2474918,4.49625034 11.2523471,4.38458 L11.2523471,4.36920509 C11.2541776,4.25930523 11.2374905,4.14988156 11.2029855,4.04552288 C11.1665713,3.93628014 11.1212557,3.88287257 11.0549009,3.77524822 C10.9869277,3.72184065 10.9197636,3.66843308 10.838843,3.6684331 L10.8258957,3.6684331 C10.7506396,3.6684331 10.6834756,3.69270927 10.6138839,3.77524822 C10.5370356,3.85019319 10.4800295,3.94307139 10.4479968,4.04552288 C10.4050187,4.14834054 10.3803705,4.25788786 10.3751683,4.36920509 L10.3751683,4.38458 C10.3767867,4.45659928 10.3816419,4.52942779 10.3913524,4.60063787 C10.2351757,4.5464211 10.0369203,4.49139513 9.90016462,4.43717834 C9.89203092,4.3838482 9.8871666,4.3300705 9.88559891,4.27614644 L9.88559891,4.25996233 C9.87912097,4.0460775 9.92059491,3.83345443 10.0069798,3.63768328 C10.0733346,3.46046726 10.1947154,3.30914584 10.3549381,3.20637673 C10.4933678,3.10182227 10.6621288,3.04528449 10.8356062,3.04534478 L10.8356062,3.04534478 Z M8.43873942,3.09308797 L8.46787082,3.09308797 C8.58277801,3.09308797 8.68635632,3.13192982 8.79074383,3.20233071 C8.90888785,3.30671822 9.0043741,3.43538189 9.06911053,3.57861128 C9.14193904,3.73964318 9.18320852,3.90310269 9.19291898,4.11835136 L9.19291898,4.12158819 C9.19858341,4.23002173 9.19777421,4.2842385 9.19130057,4.33683686 L9.19130057,4.40157331 C9.16702441,4.40723774 9.14598506,4.41613902 9.1241365,4.42099423 C9.00113725,4.46550054 8.90241418,4.53023697 8.80611874,4.58283534 C8.8158292,4.51081605 8.81663842,4.43798755 8.80854635,4.36677746 L8.80854635,4.35463938 C8.79883589,4.24701504 8.77698732,4.19360748 8.74219149,4.08517394 C8.71695956,4.00270164 8.67066076,3.92823307 8.60786338,3.86911606 C8.56757358,3.83247526 8.51412259,3.81378202 8.45977877,3.81732692 L8.44278545,3.81732692 C8.38533186,3.82218215 8.33758874,3.85050435 8.29227323,3.92414203 C8.240653,3.9867938 8.20708208,4.06232835 8.19516856,4.14262753 C8.17319972,4.23011083 8.1668985,4.32079362 8.17655684,4.41047457 L8.17655684,4.42180345 C8.1862673,4.53104619 8.20649744,4.58445376 8.24210247,4.6920781 C8.27851672,4.80051163 8.32059541,4.8539192 8.3756214,4.90894517 C8.38452266,4.91622803 8.39261471,4.92351088 8.40313437,4.92836611 C8.34648998,4.97449082 8.30845732,4.9850105 8.26071421,5.03841805 C8.23041682,5.06516221 8.1940157,5.08405745 8.15470828,5.09344404 C8.07059493,4.99215267 7.99609618,4.88324903 7.93217677,4.76814341 C7.85567191,4.59809655 7.81306758,4.41476054 7.8067499,4.22840332 C7.79334903,4.04573334 7.81532982,3.86219377 7.87148635,3.68785402 C7.91605847,3.5288594 7.99414219,3.38124529 8.10049151,3.25492907 C8.20406981,3.14730473 8.31088495,3.09308797 8.43873942,3.09308797 L8.43873942,3.09308797 Z M9.54816021,4.4735926 C9.81600725,4.4735926 10.1404987,4.52619096 10.5313449,4.79646561 C10.7684421,4.95830671 10.9545594,5.0141419 11.3834384,5.17517379 L11.385866,5.17517379 C11.5922134,5.28522575 11.7135942,5.39042246 11.7726662,5.49804679 L11.7726662,5.39204088 C11.8314109,5.51107158 11.8361274,5.64961735 11.7856135,5.77236748 C11.6860812,6.02403041 11.3680634,6.29349585 10.9246188,6.45452773 L10.9246188,6.45614616 C10.7077517,6.5653889 10.5192068,6.7256116 10.2974845,6.83242673 C10.0741438,6.94166947 9.82167168,7.06871475 9.47856853,7.04848461 C9.35531603,7.05486639 9.23203709,7.03642959 9.11604444,6.99426784 C9.02641814,6.94550448 8.93944126,6.89202179 8.85548028,6.83404513 C8.6976852,6.7248024 8.56173867,6.5653889 8.36024649,6.45776456 L8.36024649,6.45371853 L8.35620046,6.45371853 C8.03251825,6.25465397 7.85772986,6.0394053 7.80108546,5.8783734 C7.74525029,5.66150632 7.79703944,5.498856 7.95726214,5.39285008 C8.13852418,5.28360734 8.26476024,5.17355538 8.3481084,5.12095702 C8.43226577,5.06107582 8.4638248,5.03841805 8.49052857,5.0149511 L8.49214699,5.0149511 L8.49214699,5.01252348 C8.62890273,4.84906397 8.8449606,4.63300608 9.17107043,4.52619096 C9.28355,4.49705956 9.40897685,4.4735926 9.54816021,4.4735926 L9.54816021,4.4735926 Z M11.8131265,6.20772006 C12.1036313,7.3543643 12.7817455,9.01970928 13.2179073,9.8272964 C13.4493401,10.2594122 13.909778,11.1697684 14.1096518,12.2743339 C14.2358878,12.2702879 14.3758804,12.2888996 14.5247742,12.3261231 C15.047521,10.9739406 14.082948,9.52060751 13.6435494,9.11681394 C13.464715,8.95416363 13.4558137,8.84573009 13.5440171,8.84573009 C14.0206392,9.27784584 14.6485827,10.1178012 14.8759694,11.0767097 C14.9803569,11.5096347 15.0046331,11.9700726 14.8929627,12.428083 C14.9471795,12.4507407 15.0022055,12.4774445 15.0588499,12.4822998 C15.89395,12.9144155 16.2022573,13.2413345 16.0541727,13.7260486 L16.0541727,13.6912528 C16.0048112,13.6888252 15.957068,13.6912528 15.9077065,13.6912528 L15.8955684,13.6912528 C16.0177584,13.3133538 15.748293,13.0236582 15.0337645,12.7007852 C14.2933414,12.377103 13.7018122,12.4288922 13.6006615,13.0770658 C13.5949971,13.1118616 13.590951,13.1304734 13.586905,13.1863086 C13.531879,13.2049203 13.4744255,13.2291965 13.4177811,13.2380977 C13.0698227,13.4549648 12.882087,13.7794562 12.7760811,14.1986247 C12.6708844,14.6299312 12.6385161,15.1340663 12.6101939,15.7110298 L12.6101939,15.7134574 C12.5932006,15.9837321 12.4718198,16.3915717 12.3520574,16.8066941 C11.1382491,17.6741624 9.45510158,18.0512522 8.02361699,17.0769688 C7.93383524,16.9200376 7.82453126,16.7751147 7.69831636,16.6456622 C7.63807276,16.544949 7.56306079,16.4538436 7.47578483,16.3753875 C7.62306025,16.3753875 7.7492963,16.3519206 7.85206541,16.3211708 C7.96842918,16.2671924 8.05945639,16.1703672 8.10615596,16.0508961 C8.19355015,15.8348383 8.10615596,15.4868799 7.82698004,15.1097901 C7.54780414,14.7318911 7.07360969,14.3046306 6.38012055,13.8789885 C5.87032107,13.5561155 5.58224389,13.1749797 5.44953419,12.7493376 C5.31601528,12.3172218 5.33381779,11.8713496 5.4373961,11.4181945 C5.63565146,10.5523446 6.14383254,9.71077081 6.46832395,9.18235959 C6.55490894,9.12976122 6.49826455,9.29160233 6.13816811,9.97052577 C5.81772272,10.5782391 5.21486459,11.991112 6.03944503,13.0892039 C6.0705797,12.2880088 6.24801893,11.4992681 6.563001,10.7619288 C7.01939292,9.7277641 7.97344625,7.92647259 8.04870236,6.49903404 C8.08754422,6.52816544 8.22429995,6.60827678 8.28256275,6.66249357 C8.45896957,6.77011791 8.59006085,6.93195901 8.75999403,7.03877413 C8.93073639,7.20142443 9.14598506,7.30985797 9.46885807,7.30985799 C9.5004171,7.31228561 9.52954849,7.31471322 9.55867987,7.31471322 C9.89126334,7.31471322 10.1485907,7.20627968 10.3646486,7.09784614 C10.5993182,6.98941261 10.7862447,6.8275715 10.9634607,6.77416392 L10.9675067,6.77416392 C11.3454057,6.66492118 11.6440025,6.44886328 11.8131265,6.20772006 L11.8131265,6.20772006 Z M13.5820498,13.4565832 C13.6119904,13.9429157 13.8596073,14.4640441 14.2957691,14.5708592 C14.7715819,14.6792928 15.4561698,14.3013938 15.7450562,13.951817 L15.9157985,13.9445341 C16.1706983,13.9380605 16.3827101,13.9526262 16.6011956,14.160592 L16.6036232,14.1630196 C16.771938,14.3240515 16.8504309,14.5927078 16.9200226,14.8718837 C16.9888051,15.1963751 17.0446403,15.503064 17.2509877,15.7344968 C17.6442615,16.1609481 17.7729252,16.467637 17.7656424,16.6569911 L17.76807,16.6521358 L17.76807,16.6667016 L17.7656424,16.6569911 C17.7535043,16.8690029 17.6159394,16.9774365 17.362658,17.1384684 C16.8528585,17.4629598 15.9497852,17.7146227 15.37444,18.408921 C14.874351,19.0053055 14.2650192,19.3306062 13.7268976,19.3726848 C13.1895851,19.4155727 12.7259103,19.2108437 12.4532081,18.6460183 L12.449162,18.6435907 C12.2792289,18.3190992 12.3520574,17.814155 12.4944775,17.2760333 C12.6368977,16.735484 12.8408175,16.1876519 12.8691397,15.7401612 C12.8990803,15.1623885 12.9306393,14.6598718 13.0269348,14.2722624 C13.1240394,13.8959818 13.2761701,13.6273256 13.5456355,13.4760041 L13.5820498,13.4582016 L13.5820498,13.4565832 Z M4.83049196,13.4962343 L4.83858402,13.4962343 C4.8814719,13.4962343 4.92355061,13.5002803 4.96562927,13.5075631 C5.26989055,13.5520695 5.53692838,13.7770286 5.79344654,14.1160857 L6.52982357,15.4626037 L6.5322512,15.4650313 C6.72888813,15.8963379 7.14239216,16.326026 7.49439657,16.79051 C7.84559177,17.2744149 8.11748482,17.7057215 8.08430739,18.0609627 L8.08430739,18.0658179 C8.03818268,18.6678668 7.69669794,18.9947859 7.17395119,19.1129299 C6.65201362,19.2221726 5.94395878,19.1145483 5.23590394,18.7374585 C4.45259298,18.3037243 3.52200662,18.3579411 2.92400374,18.2503168 C2.6254069,18.1969092 2.42957916,18.0876665 2.33894812,17.9258254 C2.2491263,17.7647935 2.2475079,17.4394928 2.4384804,16.9305026 L2.4384804,16.9280749 L2.44009882,16.9256473 C2.53477587,16.6553727 2.46437499,16.3163155 2.41825026,16.0201463 C2.37374395,15.6956549 2.35108621,15.4464196 2.45304611,15.2594931 C2.58251899,14.9892185 2.77349149,14.9366201 3.01058871,14.8281866 C3.24930435,14.7189438 3.52928945,14.6647271 3.75182098,14.4486692 L3.7534394,14.4486692 L3.7534394,14.4462416 C3.96059602,14.2293745 4.11353586,13.9599091 4.29398869,13.7681273 C4.44773773,13.605477 4.60148678,13.4962343 4.83049196,13.4962343 L4.83049196,13.4962343 Z M10.6235944,6.15350329 C10.2715899,6.3161536 9.85889512,6.58642824 9.41949653,6.58642824 C8.98090713,6.58642824 8.63456716,6.37037036 8.38452266,6.20933846 C8.2590958,6.10090492 8.1579451,5.99247139 8.08187979,5.93825462 C7.94917008,5.82982108 7.96535419,5.66797997 8.02199857,5.66797995 C8.11020197,5.68092724 8.12638608,5.77722269 8.18303047,5.83063028 C8.26071421,5.88403785 8.35700966,5.99166218 8.47515368,6.10009572 C8.71063249,6.26193683 9.02541344,6.4779947 9.41868733,6.4779947 C9.81115202,6.4779947 10.2707808,6.26193683 10.5499567,6.10090492 C10.7077517,5.99166218 10.9100531,5.83063028 11.0743218,5.72300594 C11.2005579,5.61214478 11.1948935,5.50613885 11.3000902,5.50613885 C11.4044777,5.51908614 11.3276032,5.61457239 11.181137,5.77560429 C11.0016459,5.91134395 10.8152817,6.03774751 10.6227851,6.15431249 L10.6227851,6.15350329 L10.6235944,6.15350329 Z M9.74803397,4.87172172 L9.74803397,4.8539192 C9.74317874,4.83854429 9.75855365,4.81993257 9.77150094,4.81345892 C9.83138214,4.77866309 9.91715793,4.79161038 9.98189438,4.81669575 C10.0328743,4.81669575 10.1113673,4.87091251 10.1032752,4.92593849 C10.09842,4.96558956 10.0344927,4.97934605 9.99403245,4.97934605 C9.94952614,4.97934605 9.91958554,4.94455022 9.87993448,4.92432008 C9.83785579,4.90975437 9.76179046,4.91784643 9.74803397,4.87172172 L9.74803397,4.87172172 Z M9.30216172,4.87172172 C9.28597761,4.91865563 9.21072149,4.9113728 9.16783361,4.92512928 C9.12980095,4.94535942 9.09824193,4.98015525 9.05535404,4.98015525 C9.01408456,4.98015525 8.94934811,4.96478034 8.94449288,4.92512928 C8.93721003,4.87172172 9.01570296,4.81750495 9.0658737,4.81750495 C9.13141936,4.79241958 9.21476752,4.77947229 9.27545794,4.81345892 C9.29083285,4.82074177 9.30458934,4.83773509 9.29973411,4.8539192 L9.29973411,4.87091251 L9.30216172,4.87091251 L9.30216172,4.87172172 Z" id="形状"></path>
                    </g>
                </g>
            </g>
        </g>
    </g>
</svg>