<?xml version="1.0" encoding="UTF-8"?>
<svg width="60px" height="60px" viewBox="0 0 60 60" version="1.1" xmlns="http://www.w3.org/2000/svg" xmlns:xlink="http://www.w3.org/1999/xlink">
    <title>lock-fill (白)</title>
    <defs>
        <linearGradient x1="8.20408163%" y1="100%" x2="91.7959184%" y2="-3.061617e-15%" id="linearGradient-1">
            <stop stop-color="#B4D2FF" offset="0%"></stop>
            <stop stop-color="#DCB4FF" offset="100%"></stop>
        </linearGradient>
    </defs>
    <g id="页面-1" stroke="none" stroke-width="1" fill="none" fill-rule="evenodd">
        <g id="2-1官网备份-6" transform="translate(-1870, -3120)" fill-rule="nonzero">
            <g id="lock-fill-(白)" transform="translate(1870, 3120)">
                <rect id="矩形" fill="#000000" opacity="0" x="0" y="0" width="60" height="60"></rect>
                <path d="M30.0495,3.75 C33.4310102,3.75 36.6740226,5.09329969 39.0651115,7.48438852 C41.4562003,9.87547734 42.7995,13.1184897 42.7995,16.5 L42.798,20.25 L49.5,20.25 C50.6934742,20.25 51.8380668,20.7241058 52.6819805,21.5680195 C53.5258942,22.4119332 54,23.5565258 54,24.75 L54,51.75 C54,52.9434742 53.5258942,54.0880668 52.6819805,54.9319805 C51.8380668,55.7758942 50.6934742,56.25 49.5,56.25 L10.5,56.25 C8.01471862,56.25 6,54.2352814 6,51.75 L6,24.75 C6,22.2647186 8.01471862,20.25 10.5,20.25 L17.298,20.25 L17.298,16.5 C17.298,9.45836944 23.0063694,3.75 30.048,3.75 L30.0495,3.75 Z M32.6805,32.25 L28.1805,32.25 L28.1805,44.25 L32.6805,44.25 L32.6805,32.25 Z M30.0495,8.24999999 C25.4931508,8.24999999 21.7995,11.9436508 21.7995,16.5 L21.7995,20.25 L38.2995,20.25 L38.2995,16.5 C38.2995,14.3119639 37.4303061,12.2135441 35.883131,10.666369 C34.3359558,9.1191939 32.237536,8.24999999 30.0495,8.24999999 Z" id="形状" fill="url(#linearGradient-1)"></path>
            </g>
        </g>
    </g>
</svg>