<?xml version="1.0" encoding="UTF-8"?>
<svg width="60px" height="60px" viewBox="0 0 60 60" version="1.1" xmlns="http://www.w3.org/2000/svg" xmlns:xlink="http://www.w3.org/1999/xlink">
    <title>权限管理（白）</title>
    <defs>
        <linearGradient x1="12.4433687%" y1="100%" x2="87.5566313%" y2="-3.061617e-15%" id="linearGradient-1">
            <stop stop-color="#B4D2FF" offset="0%"></stop>
            <stop stop-color="#DCB4FF" offset="100%"></stop>
        </linearGradient>
    </defs>
    <g id="页面-1" stroke="none" stroke-width="1" fill="none" fill-rule="evenodd">
        <g id="2-1官网备份-6" transform="translate(-2260, -3120)" fill-rule="nonzero">
            <g id="权限管理（白）" transform="translate(2260, 3120)">
                <rect id="矩形" fill="#000000" opacity="0" x="0" y="0" width="60" height="60"></rect>
                <path d="M29.9965997,57.4069074 C29.9170364,57.3701858 29.8313528,57.3334643 29.7456692,57.302863 C24.231317,55.1852538 6.25,46.8372224 6.25,28.2193986 L6.25,12.1782032 C18.0743378,12.1782032 29.8803148,2.69792412 29.9965997,2.6 C30.1128846,2.69792412 41.6862919,12.1782032 53.7496646,12.1782032 L53.7496646,28.2193986 C53.7738008,32.9931996 52.4946669,37.6813169 50.0526841,41.7818896 C47.9289547,45.2765567 45.1687185,48.3305653 41.9188617,50.8153899 C38.3201502,53.6307084 34.2930206,55.8462417 29.9965997,57.4069074 Z M29.8191123,16.4011384 C26.5753757,16.3889405 23.9436649,19.0145311 23.9314244,22.2521474 C23.9191839,25.4958839 26.5447744,28.133715 29.788511,28.1398352 L29.8252325,28.1398352 C24.3904437,28.1092339 19.9593772,32.4913384 19.9287759,37.9261272 C19.9287759,40.7108445 25.0453113,41.9838581 29.8252325,41.9838581 C34.611274,41.9838581 39.7216892,40.7169647 39.7216892,37.9261272 C39.6788474,32.5096992 35.2722618,28.1398352 29.8558338,28.1398352 C33.0995704,28.1398352 35.7251609,25.5081244 35.7251609,22.2705081 C35.7251609,19.0267716 33.0934501,16.4011384 29.8558338,16.4011384 L29.8191123,16.4011384 L29.8191123,16.4011384 Z" id="形状" fill="url(#linearGradient-1)"></path>
            </g>
        </g>
    </g>
</svg>